<?xml version="1.0" encoding="utf-8"?>
<!-- Generator: Adobe Illustrator 16.0.0, SVG Export Plug-In . SVG Version: 6.00 Build 0)  -->
<!DOCTYPE svg PUBLIC "-//W3C//DTD SVG 1.1//EN" "http://www.w3.org/Graphics/SVG/1.1/DTD/svg11.dtd">
<svg version="1.1" id="_x38_69a981d-5394-490d-9104-6940aaebaf2b"
	 xmlns="http://www.w3.org/2000/svg" xmlns:xlink="http://www.w3.org/1999/xlink" x="0px" y="0px" width="1003.92px"
	 height="836.781px" viewBox="0 0 1003.92 836.781" enable-background="new 0 0 1003.92 836.781" xml:space="preserve">
<title>questions</title>
<ellipse opacity="0.1" fill="#6C63FF" enable-background="new    " cx="713.5" cy="826.66" rx="102.56" ry="10.109"/>
<path opacity="0.1" fill="#6C63FF" enable-background="new    " d="M439.53,12.24C484.7-4.55,539.69,9.89,586.65,30.95
	C734.14,97.11,841.59,222.7,926.96,350.65c30.91,46.331,60.271,94.699,71.89,146.42c23.66,105.27-38.05,214.25-143,252.439
	c-35.689,13-74.899,18.33-114.17,21.301c-69.83,5.289-142.13,3.189-211.399-16.4c-49.4-14-96.13-36.52-140.95-61.4
	C264.16,623.49,149.85,533.21,67.54,422.929C31.44,374.56,0.9,320.03,0.02,264.22s35.49-111.89,95.33-121.38
	c24.74-3.92,50.91,0.16,76.44,4.36c37.59,6.19,75.69,12.7,112.85,10c38.39-2.81,88.32-17.81,95.32-54.46
	C387.37,63.39,394.42,29.01,439.53,12.24z"/>
<path fill="#6C63FF" d="M244.02,768.81c0,0,48.26-2.91,42.57,30.91c0,0,1.13,6-4.29,8.689c0,0-0.08-2.51-4.95-1.66
	c-1.73,0.297-3.489,0.385-5.24,0.26c-2.368-0.164-4.618-1.094-6.41-2.648l0,0c0,0-13.57-5.602-18.84-27.781c0,0-3.91-4.83-3.75-6.08
	l8.14,3.48c0,0-2.78,5.881-0.59,10.76c0,0,0.26-10.539,1.83-10.301c0.31,0.051,4.23,2,4.23,2s-4.79,10.23-1.18,17.672
	c0,0-1.37-12.611,2.67-16.932l5.74,3.352c0,0-5.6,10.568-1.8,19.189c0,0-1-13.23,3-18.381l5.2,4c0,0-5.26,10.42-2.05,17.58
	c0,0,0.41-15.41,3.17-16.57c0,0,4.55,4,5.24,5.66c0,0-3.6,7.561-1.37,11.551c0,0,1.37-10.26,2.5-10.311c0,0,4.52,6.801,5,11.461
	c0,0-0.2-6.93-3.91-12.111c0,0,4.38,0.75,6.94,3.59c0,0-0.71-4.809-8.05-5.229c0,0-3.74-5.15-4.75-5.471c0,0,7.31-0.609,11.74,1.359
	c0,0-3.9-4.539-13.08-2.479l-5.13-4.18c0,0,9.63-1.32,13.7,0.139c0,0-4.69-4-15.08-1.09l-5.58-3.34c0,0,8.2-1.77,13.09-1.131
	c0,0-5.16-2.779-14.73,0.23l-4-1.789c0,0,6-1.18,7.77-1.371c1.77-0.189,1.85-0.67,1.85-0.67c-3.807-0.637-7.715-0.205-11.29,1.25
	C252.33,772.419,243.87,769.39,244.02,768.81z"/>
<ellipse opacity="0.1" fill="#6C63FF" enable-background="new    " cx="277.26" cy="811.36" rx="34.16" ry="5.771"/>
<path fill="#6C63FF" d="M179.37,746.06c0,0,27.21-1.641,24,17.43c0.348,1.984-0.626,3.965-2.41,4.9c0,0-0.05-1.41-2.79-0.93
	c-0.974,0.166-1.964,0.213-2.95,0.139c-1.338-0.082-2.611-0.605-3.62-1.488l0,0c0,0-7.64-3.17-10.64-15.67c0,0-2.2-2.73-2.12-3.432
	l4.6,2c0,0-1.57,3.32-0.34,6.07c0,0,0.15-5.949,1-5.811c0.18,0,2.39,1.15,2.39,1.15s-2.7,5.771-0.66,10c0,0-0.78-7.109,1.5-9.549
	l3.23,1.889c0,0-3.15,6-1,10.82c0,0-0.55-7.459,1.69-10.359l2.93,2.279c0,0-3,5.871-1.15,9.91c0,0,0.23-8.689,1.79-9.34
	c0,0,2.56,2.26,2.95,3.189c0,0-2,4.262-0.77,6.512c0,0,0.77-5.781,1.41-5.811c0,0,2.55,3.83,2.81,6.459
	c-0.127-2.428-0.886-4.783-2.2-6.83c1.471,0.27,2.831,0.965,3.91,2c0,0-0.39-2.709-4.54-2.949c0,0-2.11-2.91-2.67-3.08
	c0,0,4.12-0.35,6.62,0.76c0,0-2.2-2.561-7.38-1.4l-2.89-2.359c0,0,5.43-0.74,7.73,0.08c0,0-2.65-2.26-8.51-0.609l-3.14-1.891
	c2.419-0.529,4.896-0.74,7.37-0.631c0,0-2.9-1.568-8.3,0.131l-2.25-1c0,0,3.39-0.67,4.38-0.77c0.99-0.102,1.05-0.381,1.05-0.381
	c-2.148-0.355-4.353-0.109-6.37,0.711C184.03,748.201,179.29,746.39,179.37,746.06z"/>
<ellipse opacity="0.1" fill="#6C63FF" enable-background="new    " cx="198.11" cy="770.041" rx="19.26" ry="3.26"/>
<path fill="#6C63FF" d="M848.78,764.39c0,0,32.85-2,29,21c0.403,2.396-0.773,4.781-2.92,5.92c0,0-0.061-1.711-3.37-1.131
	c-1.179,0.201-2.378,0.258-3.57,0.17c-1.611-0.104-3.144-0.736-4.359-1.799l0,0c0,0-9.24-3.811-12.83-18.91
	c0,0-2.66-3.291-2.551-4.131l5.54,2.361c0,0-1.89,4-0.399,7.33c0,0,0.18-7.182,1.239-7c0.221,0,2.881,1.379,2.881,1.379
	s-3.261,7-0.801,12c0,0-0.93-8.58,1.82-11.52l3.9,2.27c0,0-3.811,7.201-1.221,13.07c0,0-0.67-9,2-12.51l3.54,2.76
	c0,0-3.58,7.09-1.399,12c0,0,0.29-10.48,2.17-11.279c0,0,3.09,2.729,3.56,3.85c0,0-2.45,5.15-0.93,7.869c0,0,0.93-7,1.7-7
	c0,0,3.08,4.631,3.399,7.801c-0.148-2.932-1.063-5.771-2.649-8.24c1.777,0.336,3.417,1.184,4.72,2.439c0,0-0.48-3.27-5.49-3.559
	c0,0-2.54-3.512-3.22-3.721c0,0,5-0.42,8,0.92c0,0-2.66-3.08-8.91-1.68l-3.49-2.85c0,0,6.551-0.9,9.33,0.09
	c0,0-3.199-2.73-10.27-0.74l-3.8-2.27c0,0,5.58-1.201,8.91-0.771c0,0-3.511-1.889-10,0.16l-2.721-1.219c0,0,4.09-0.811,5.29-0.932
	c1.2-0.119,1.26-0.459,1.26-0.459c-2.589-0.432-5.247-0.139-7.68,0.85C854.46,766.91,848.68,764.769,848.78,764.39z"/>
<ellipse opacity="0.1" fill="#6C63FF" enable-background="new    " cx="871.4" cy="793.36" rx="23.25" ry="3.931"/>
<path opacity="0.1" enable-background="new    " d="M645.26,459.72c0,0,3.061,11.379,1.101,12.6L645.26,459.72z"/>
<path fill="#6C63FF" d="M635.66,687.635h-69.17v-68.16h69.22L635.66,687.635z M634.66,584.864h-67.17
	c0-105.919,100.68-99.729,100.68-166.739c0-36.91-30.21-66.48-67.12-66.48c-36.909,0-67.109,31.88-67.109,67.53h-67.12
	c-0.127-74.006,59.764-134.103,133.77-134.23c0.153,0,0.307,0,0.46,0c74.141,0,134.23,59.15,134.23,133.18
	c0,83.79-100.67,93.329-100.67,166.739H634.66z"/>
<path opacity="0.1" fill="#6C63FF" enable-background="new    " d="M281.14,382.39H263.3v-17.62h17.84V382.39z M280.87,355.89h-17.3
	c0-27.3,25.95-25.71,25.95-43c-0.039-9.51-7.779-17.189-17.29-17.15c-0.003,0-0.007,0-0.01,0c-9.495,0.219-17.118,7.904-17.26,17.4
	h-17.3c0.242-19.113,15.932-34.411,35.045-34.169c18.667,0.236,33.783,15.234,34.165,33.899c-0.05,21.6-26,24.06-26,42.98V355.89z"
	/>
<path opacity="0.1" fill="#6C63FF" enable-background="new    " d="M416.22,504.8h-17.84v-17.57h17.84V504.8z M415.96,478.31h-17.3
	c0-27.311,25.95-25.711,25.95-43c-0.039-9.504-7.775-17.178-17.28-17.14c-0.007,0-0.014,0-0.021,0
	c-9.537,0.172-17.216,7.882-17.35,17.419h-17.3c0.241-19.113,15.931-34.411,35.044-34.169c18.668,0.235,33.784,15.234,34.166,33.9
	C441.9,456.919,415.96,459.39,415.96,478.31z"/>
<path opacity="0.1" fill="#6C63FF" enable-background="new    " d="M498.36,288.1H485.43v-12.71h12.931V288.1z M498.17,268.89
	h-12.54c0-19.78,18.811-18.63,18.811-31.15c-0.033-6.893-5.647-12.453-12.54-12.42l0,0c-6.898,0.14-12.444,5.721-12.54,12.62h-12.54
	c-0.056-13.851,11.128-25.125,24.979-25.18c13.852-0.055,25.125,11.129,25.181,24.98C516.96,253.39,498.17,255.18,498.17,268.89z"/>
<path opacity="0.1" fill="#6C63FF" enable-background="new    " d="M719.2,306.04h-7.311v-7.2h7.311V306.04z M719.09,295.19h-7.13
	c0-11.18,10.63-10.53,10.63-17.61c0-3.866-3.134-7-6.999-7c-0.027,0-0.054,0-0.081,0c-3.897,0.08-7.031,3.232-7.09,7.13h-7.09
	c0.176-7.829,6.665-14.034,14.494-13.858c7.54,0.169,13.628,6.21,13.855,13.749C729.72,286.39,719.09,287.44,719.09,295.19z"/>
<path opacity="0.1" fill="#6C63FF" enable-background="new    " d="M830.96,633.509h-7.31v-7.199h7.31V633.509z M830.85,622.66
	h-7.09c0-11.189,10.641-10.529,10.641-17.609c-0.028-3.891-3.2-7.021-7.091-7c-3.899,0.074-7.036,3.23-7.09,7.129h-7.09
	c0.176-7.828,6.665-14.033,14.494-13.857c7.54,0.168,13.628,6.211,13.855,13.748c0.04,8.83-10.59,9.84-10.59,17.59H830.85z"/>
</svg>
