<?xml version="1.0" encoding="utf-8"?>
<!-- Generator: Adobe Illustrator 16.0.0, SVG Export Plug-In . SVG Version: 6.00 Build 0)  -->
<!DOCTYPE svg PUBLIC "-//W3C//DTD SVG 1.1//EN" "http://www.w3.org/Graphics/SVG/1.1/DTD/svg11.dtd">
<svg version="1.1" id="ae078c60-54bd-436d-9521-059685d2198b"
	 xmlns="http://www.w3.org/2000/svg" xmlns:xlink="http://www.w3.org/1999/xlink" x="0px" y="0px" width="680.965px"
	 height="626.969px" viewBox="0 0 680.965 626.969" enable-background="new 0 0 680.965 626.969" xml:space="preserve">
<path fill="#6C63FF" d="M543.542,213.696c0,0-13.484,12.283-30.434,12.647c-16.949,0.363-30.947-11.33-30.947-11.33
	s13.484-12.283,30.434-12.647C529.543,202.002,543.542,213.696,543.542,213.696z"/>
<path fill="#6C63FF" d="M620.389,120.504c0,0-17.559-4.933-32.871,2.342c-15.314,7.275-22.582,24.003-22.582,24.003
	s17.561,4.934,32.871-2.341C613.122,137.232,620.389,120.504,620.389,120.504z"/>
<path fill="#3F3D56" d="M625.729,152.013c0,0-14.777,10.69-31.66,9.147c-16.885-1.543-29.48-14.735-29.48-14.735
	s14.779-10.69,31.662-9.147C613.135,138.821,625.729,152.013,625.729,152.013z"/>
<path fill="#3F3D56" d="M519.497,110.789c0,0-10.625,14.825-9.006,31.702c1.617,16.876,14.865,29.413,14.865,29.413
	s10.625-14.826,9.008-31.702C532.745,123.325,519.497,110.789,519.497,110.789z"/>
<path fill="#3F3D56" d="M487.944,377.59c-0.037-12.111-5.889-23.13-11.547-33.785c-1.031-1.941-2.059-3.873-3.047-5.807
	c-4.109-7.811-7.387-16.033-9.773-24.531c-8.52-31.655-0.105-69.042,22.506-100.007c18.014-24.669,44.908-46.261,82.215-66.011
	l-0.729-1.376c-37.521,19.863-64.586,41.604-82.744,66.469c-22.889,31.343-31.395,69.223-22.754,101.33
	c2.416,8.604,5.732,16.928,9.893,24.836c0.992,1.938,2.023,3.88,3.055,5.827c5.572,10.488,11.33,21.334,11.367,33.061
	c-0.104,8.016-2.586,15.82-7.135,22.421l1.289,0.872C485.264,394.027,487.842,385.918,487.944,377.59z"/>
<circle fill="#3F3D56" cx="641.528" cy="133.323" r="14.796"/>
<title>healthy_options</title>
<path fill="#3F3D56" d="M335.005,409.613c-2.161,0-4.343-0.034-6.485-0.102l0.049-1.556c3.075,0.096,6.215,0.123,9.306,0.08
	l0.021,1.557C336.934,409.606,335.97,409.613,335.005,409.613z M347.266,409.252l-0.09-1.554c3.08-0.183,6.201-0.438,9.273-0.759
	l0.164,1.548C353.514,408.813,350.372,409.069,347.266,409.252z M319.158,409.009c-3.107-0.237-6.246-0.55-9.331-0.928l0.189-1.545
	c3.063,0.375,6.178,0.685,9.261,0.921L319.158,409.009z M365.913,407.297l-0.234-1.539c3.061-0.465,6.146-1.004,9.166-1.604
	l0.303,1.526C372.104,406.285,368.997,406.829,365.913,407.297z M300.549,406.727c-3.069-0.52-6.167-1.117-9.207-1.777l0.331-1.522
	c3.017,0.655,6.091,1.249,9.137,1.765L300.549,406.727z M384.299,403.642l-0.373-1.512c3.004-0.743,6.025-1.563,8.98-2.439
	l0.441,1.493C390.372,402.066,387.329,402.894,384.299,403.642z M282.227,402.749c-3.01-0.801-6.04-1.681-9.004-2.619l0.469-1.483
	c2.942,0.93,5.948,1.804,8.935,2.598L282.227,402.749z M402.276,398.31l-0.512-1.471c2.916-1.014,5.848-2.11,8.717-3.258
	l0.578,1.446C408.168,396.184,405.213,397.288,402.276,398.31L402.276,398.31z M264.326,397.09
	c-2.924-1.075-5.866-2.234-8.743-3.447l0.604-1.436c2.855,1.203,5.774,2.354,8.676,3.42L264.326,397.09z M419.663,391.352
	l-0.645-1.416c2.801-1.272,5.615-2.631,8.365-4.037l0.709,1.387C425.321,388.702,422.485,390.07,419.663,391.352L419.663,391.352z
	 M436.327,382.833l-0.771-1.353c2.688-1.531,5.367-3.143,7.969-4.787l0.832,1.315C441.735,379.667,439.034,381.291,436.327,382.833
	L436.327,382.833z M452.155,372.82l-0.893-1.275c2.529-1.768,5.053-3.617,7.5-5.498l0.949,1.235
	C457.245,369.178,454.702,371.042,452.155,372.82z M214.776,370.628c-2.514-1.826-5.025-3.737-7.464-5.687l0.972-1.217
	c2.42,1.933,4.913,3.832,7.407,5.643L214.776,370.628z M467.008,361.402l-1.004-1.19c2.357-1.989,4.703-4.062,6.973-6.16
	l1.057,1.144C471.749,357.311,469.385,359.398,467.008,361.402z M200.116,358.923c-2.341-2.05-4.667-4.183-6.913-6.339l1.079-1.124
	c2.229,2.14,4.537,4.256,6.86,6.292L200.116,358.923z M480.772,348.674l-1.109-1.094c2.172-2.202,4.322-4.48,6.387-6.771
	l1.158,1.043C485.127,344.16,482.961,346.455,480.772,348.674z M186.588,345.939c-2.148-2.26-4.27-4.594-6.305-6.938l1.176-1.021
	c2.021,2.328,4.125,4.645,6.257,6.886L186.588,345.939z M493.325,334.741l-1.203-0.988c1.963-2.39,3.895-4.854,5.746-7.328
	l1.248,0.933C497.25,329.85,495.303,332.334,493.325,334.741L493.325,334.741z M174.301,331.784
	c-1.929-2.438-3.829-4.954-5.646-7.479l1.264-0.91c1.804,2.506,3.688,5.004,5.603,7.424L174.301,331.784z M504.563,319.716
	l-1.289-0.875c1.736-2.557,3.438-5.189,5.057-7.824l1.328,0.815C508.026,314.486,506.311,317.141,504.563,319.716L504.563,319.716z
	 M163.359,316.578c-1.697-2.602-3.358-5.278-4.937-7.958l1.341-0.791c1.567,2.659,3.216,5.316,4.9,7.897L163.359,316.578z
	 M514.385,303.721l-1.361-0.753c1.494-2.706,2.947-5.484,4.316-8.259l1.396,0.69C517.356,298.194,515.891,300.995,514.385,303.721z
	 M522.702,286.884l-1.426-0.625c1.24-2.834,2.434-5.737,3.541-8.627l1.455,0.558C525.155,281.103,523.952,284.027,522.702,286.884z
	 M145.872,283.523c-1.194-2.866-2.337-5.797-3.398-8.714l1.464-0.533c1.052,2.896,2.187,5.804,3.372,8.647L145.872,283.523z
	 M529.438,269.338l-1.479-0.49c0.971-2.929,1.889-5.922,2.725-8.897l1.5,0.421C531.34,263.371,530.417,266.387,529.438,269.338z
	 M139.474,265.925c-0.926-2.968-1.797-6-2.588-9.013l1.507-0.396c0.784,2.99,1.648,6,2.568,8.945L139.474,265.925z M534.514,251.289
	l-1.518-0.353c0.697-3.002,1.334-6.067,1.895-9.11l1.531,0.281C535.858,245.174,535.217,248.263,534.514,251.289L534.514,251.289z
	 M134.717,247.789c-0.649-3.042-1.237-6.141-1.747-9.212l1.536-0.256c0.506,3.049,1.089,6.125,1.734,9.143L134.717,247.789z
	 M537.907,232.85l-1.543-0.211c0.42-3.05,0.771-6.161,1.053-9.245l1.551,0.14C538.686,226.643,538.329,229.776,537.907,232.85
	L537.907,232.85z M131.647,229.294c-0.367-3.083-0.668-6.223-0.896-9.333l1.554-0.114c0.226,3.086,0.525,6.202,0.89,9.262
	L131.647,229.294z M539.602,214.18l-1.557-0.07c0.139-3.086,0.209-6.216,0.209-9.303h1.557
	C539.813,207.917,539.741,211.071,539.602,214.18z M130.279,210.596c-0.053-1.91-0.08-3.858-0.081-5.79
	c0-1.199,0.01-2.395,0.031-3.589l1.557,0.027c-0.021,1.185-0.031,2.372-0.031,3.562c0,1.917,0.027,3.851,0.08,5.747L130.279,210.596
	z M132.156,191.947l-1.554-0.097c0.194-3.112,0.463-6.255,0.797-9.342l1.548,0.167C132.615,185.739,132.35,188.858,132.156,191.947
	L132.156,191.947z M537.249,182.445c-0.311-3.07-0.738-4.567-1.191-7.625l1.541-0.227c0.455,3.08,0.848,5.432,1.16,8.525
	L537.249,182.445z M134.16,173.45l-1.54-0.238c0.478-3.081,1.032-6.187,1.648-9.231l1.526,0.309
	C135.184,167.311,134.633,170.393,134.16,173.45z M534.487,165.65c-0.596-3.038-1.266-6.096-1.992-9.089l1.514-0.368
	c0.732,3.016,1.408,6.098,2.006,9.159L534.487,165.65z M137.849,155.214l-1.511-0.378c0.756-3.017,1.594-6.058,2.49-9.041
	l1.491,0.448C139.431,149.203,138.6,152.221,137.849,155.214z M530.084,147.572c-0.867-2.965-1.816-5.948-2.82-8.867l1.473-0.506
	c1.012,2.941,1.969,5.948,2.844,8.936L530.084,147.572z M143.21,137.371l-1.469-0.517c1.035-2.944,2.152-5.902,3.321-8.792
	l1.444,0.584C145.347,131.514,144.237,134.45,143.21,137.371L143.21,137.371z M524.036,129.977c-1.137-2.866-2.354-5.743-3.617-8.55
	l1.422-0.64c1.273,2.829,2.5,5.728,3.645,8.616L524.036,129.977z M150.201,120.085l-1.415-0.65c1.301-2.833,2.685-5.673,4.115-8.443
	l1.384,0.714C152.865,114.455,151.492,117.274,150.201,120.085z M516.415,113.049c-1.396-2.75-2.871-5.505-4.389-8.188l1.354-0.767
	c1.531,2.704,3.02,5.48,4.424,8.251L516.415,113.049z M158.749,103.525l-1.35-0.777c1.554-2.698,3.192-5.398,4.87-8.025l1.313,0.838
	C161.917,98.168,160.291,100.848,158.749,103.525L158.749,103.525z M507.264,96.879c-1.646-2.62-3.369-5.23-5.123-7.758l1.279-0.888
	c1.768,2.547,3.504,5.177,5.162,7.817L507.264,96.879z M168.773,87.827L167.5,86.93c1.795-2.546,3.673-5.084,5.581-7.544l1.23,0.955
	C172.418,82.781,170.555,85.3,168.773,87.827z M496.668,81.604c-1.877-2.458-3.832-4.902-5.809-7.264l1.193-1
	c1.994,2.379,3.963,4.841,5.854,7.318L496.668,81.604z M180.185,73.116l-1.186-1.01c2.015-2.366,4.115-4.722,6.242-7.001
	l1.138,1.062C184.269,68.429,182.185,70.768,180.185,73.116z M484.723,67.347c-2.092-2.277-4.262-4.535-6.449-6.708l1.098-1.105
	c2.205,2.19,4.391,4.464,6.5,6.759L484.723,67.347z M192.882,59.51l-1.089-1.113c2.227-2.179,4.532-4.333,6.85-6.402l1.037,1.162
	C197.379,55.21,195.092,57.348,192.882,59.51z M471.526,54.23c-2.293-2.08-4.66-4.131-7.035-6.096l0.992-1.2
	c2.393,1.98,4.779,4.047,7.09,6.143L471.526,54.23z M206.757,47.119l-0.983-1.208c2.409-1.961,4.898-3.896,7.399-5.75l0.928,1.251
	C211.619,43.252,209.148,45.172,206.757,47.119z M221.695,36.047l-0.87-1.292c2.578-1.734,5.232-3.433,7.889-5.049l0.809,1.331
	C226.888,32.641,224.254,34.327,221.695,36.047z M237.572,26.39l-0.748-1.367c2.728-1.492,5.524-2.94,8.312-4.304l0.685,1.399
	C243.054,23.472,240.278,24.909,237.572,26.39z M425.534,22.782c-2.771-1.38-5.609-2.714-8.438-3.964l0.631-1.424
	c2.85,1.259,5.709,2.604,8.502,3.995L425.534,22.782z M254.253,18.23l-0.619-1.429c2.851-1.235,5.766-2.42,8.666-3.522l0.553,1.457
	C259.976,15.829,257.082,17.005,254.253,18.23z M408.483,15.245c-2.885-1.118-5.834-2.185-8.773-3.171l0.496-1.477
	c2.959,0.994,5.936,2.069,8.84,3.196L408.483,15.245z M271.626,11.634l-0.485-1.48c2.96-0.97,5.98-1.884,8.976-2.715l0.416,1.5
	C277.56,9.764,274.563,10.671,271.626,11.634z M390.821,9.318c-2.971-0.847-6-1.636-9.004-2.344l0.355-1.516
	c3.029,0.713,6.082,1.508,9.076,2.361L390.821,9.318z M289.554,6.658l-0.347-1.518c3.034-0.693,6.125-1.325,9.187-1.877l0.277,1.532
	C295.632,5.344,292.565,5.971,289.554,6.658z M372.713,5.049c-3.033-0.569-6.123-1.076-9.182-1.505l0.215-1.542
	c3.084,0.434,6.197,0.943,9.254,1.517L372.713,5.049z M307.864,3.354l-0.206-1.543c3.083-0.412,6.218-0.758,9.318-1.027l0.136,1.551
	C314.035,2.603,310.924,2.946,307.864,3.354z M354.29,2.46c-3.068-0.289-6.191-0.512-9.283-0.661l0.076-1.556
	c3.115,0.151,6.26,0.375,9.352,0.667L354.29,2.46z M326.399,1.737l-0.065-1.556c2.862-0.12,5.78-0.18,8.672-0.181l0.705,0.001
	l-0.004,1.558l-0.7-0.001C332.135,1.558,329.239,1.619,326.399,1.737z"/>
<path fill="#3F3D56" d="M464.313,73.361v504.774c-0.012,12.521-10.164,22.665-22.686,22.668H236.705
	c-12.506,0.022-22.663-10.098-22.685-22.604c0-0.021,0-0.042,0-0.063V73.361c-0.001-12.527,10.153-22.683,22.681-22.685
	c0.001,0,0.002,0,0.004,0h30.666v3.933c0,10.315,8.359,18.679,18.674,18.682h104.227c3.986,0.008,7.869-1.27,11.072-3.645
	c0.648-0.471,1.262-0.986,1.838-1.542c3.688-3.521,5.77-8.398,5.764-13.496v-3.933h32.682c12.525-0.003,22.682,10.146,22.686,22.67
	C464.313,73.352,464.313,73.357,464.313,73.361z"/>
<rect x="243.98" y="232.643" fill="#6C63FF" width="190.372" height="144.843"/>
<path fill="#6C63FF" d="M143.732,208.238c16.95,0.363,30.433,12.646,30.433,12.646s-13.998,11.693-30.947,11.33
	c-16.95-0.363-30.434-12.646-30.434-12.646S126.782,207.875,143.732,208.238z"/>
<path fill="#6C63FF" d="M58.517,150.38c15.313,7.275,32.873,2.342,32.873,2.342s-7.269-16.729-22.582-24.003
	c-15.313-7.275-32.873-2.342-32.873-2.342S43.204,143.105,58.517,150.38z"/>
<path fill="#3F3D56" d="M60.074,143.15c16.883-1.543,31.661,9.147,31.661,9.147S79.14,165.49,62.256,167.033
	c-16.883,1.543-31.661-9.147-31.661-9.147S43.19,144.694,60.074,143.15z"/>
<path fill="#3F3D56" d="M121.962,146.074c-1.618,16.876,9.006,31.702,9.006,31.702s13.249-12.537,14.867-29.413
	c1.618-16.876-9.006-31.702-9.006-31.702S123.581,129.197,121.962,146.074z"/>
<path fill="#3F3D56" d="M201.475,249.575c-8.855,14.457-5.809,32.44-5.809,32.44s17.405-5.457,26.26-19.914s5.809-32.44,5.809-32.44
	S210.33,235.118,201.475,249.575z"/>
<path fill="#3F3D56" d="M175.784,406.761l1.291-0.873c-4.549-6.601-7.033-14.405-7.136-22.421
	c0.036-11.726,5.796-22.572,11.366-33.061c1.034-1.947,2.064-3.889,3.056-5.827c4.161-7.908,7.477-16.231,9.893-24.836
	c8.64-32.106,0.134-69.987-22.754-101.33c-18.156-24.864-45.222-46.606-82.743-66.469l-0.729,1.376
	c37.307,19.75,64.2,41.342,82.214,66.011c22.612,30.965,31.026,68.351,22.508,100.007c-2.388,8.498-5.665,16.721-9.775,24.531
	c-0.988,1.934-2.015,3.865-3.045,5.806c-5.659,10.656-11.51,21.675-11.548,33.786C168.484,391.791,171.061,399.9,175.784,406.761z"
	/>
<circle fill="#3F3D56" cx="14.796" cy="139.196" r="14.796"/>
<polygon fill="#6C63FF" points="223.077,379.368 130.199,371.628 130.199,235.406 223.077,230.763 "/>
<polygon fill="#6C63FF" points="455.254,379.368 548.133,371.628 548.133,235.406 455.254,230.763 "/>
<path fill="#FFFFFF" d="M371.452,287.009c-5.65-4.88-13.674-5.9-20.365-2.589c-2.842,1.375-5.9,2.25-9.039,2.586
	c-0.078-6.799,1.17-13.549,3.674-19.871l0.412-1.06h-5.458l-0.157,0.573c-0.607,2.235-1.087,4.504-1.435,6.794
	c-0.295-0.993-0.678-1.958-1.142-2.883c-3.829-7.592-12.677-10.697-13.052-10.825l-0.754-0.259l-0.241,0.76
	c-0.118,0.378-2.881,9.337,0.947,16.93c2.742,5.436,8.054,8.57,10.989,9.959c-3.714-0.239-7.345-1.21-10.683-2.857
	c-4.247-2.188-9.371-1.756-13.19,1.113c-10.192,7.745-16.038,19.098-16.038,31.149c0,15.83,10.251,30.326,26.117,36.933
	c1.432,0.595,2.966,0.897,4.516,0.896c2.151,0.002,4.264-0.578,6.113-1.676c5.006-2.912,11.186-2.925,16.206-0.033
	c3.23,1.906,7.17,2.184,10.637,0.748c15.773-6.631,25.965-21.103,25.965-36.869C385.473,305.247,380.493,294.762,371.452,287.009z
	 M341.866,267.634h2.006c-2.256,6.038-3.405,12.432-3.394,18.877h-0.356C339.638,280.166,340.228,273.783,341.866,267.634
	L341.866,267.634z M326.232,276.466c-2.907-5.764-1.633-12.633-1.068-14.951c2.198,0.923,8.474,3.973,11.386,9.747
	c2.907,5.763,1.632,12.631,1.068,14.95C335.418,285.286,329.138,282.228,326.232,276.466L326.232,276.466z M358.905,351.964
	c-3.014,1.246-6.438,1.003-9.244-0.655c-5.508-3.18-12.295-3.166-17.791,0.036c-2.8,1.666-6.221,1.919-9.235,0.681
	c-15.283-6.362-25.158-20.295-25.158-35.494c0-11.56,5.622-22.461,15.422-29.909c1.881-1.42,4.174-2.186,6.529-2.18
	c1.741-0.001,3.457,0.414,5.004,1.21c8.638,4.122,18.662,4.181,27.347,0.163c6.131-3.033,13.482-2.097,18.656,2.376
	c8.691,7.452,13.479,17.517,13.479,28.338C383.917,331.668,374.098,345.576,358.905,351.964L358.905,351.964z"/>
<path fill="#FFFFFF" d="M176.384,272.292v-1.828h0.727v-5.695c0.005-0.861-0.469-1.653-1.231-2.054
	c-3.214-1.677-6.668-1.675-10.266,0.008c-0.812,0.385-1.327,1.203-1.326,2.101v5.641h0.727v1.655
	c-5.498,1.541-9.29,6.562-9.267,12.271v12.325l1.384,0.461l-1.384,0.922v3.704l1.384,0.461l-1.384,0.923v3.704l1.384,0.461
	l-1.384,0.923v28.208c0.005,4.582,3.717,8.295,8.298,8.3h12.234c4.571-0.005,8.275-3.709,8.28-8.28v-28.227l-1.384-0.923
	l1.384-0.461v-3.704l-1.384-0.923l1.384-0.461v-3.704l-1.384-0.922l1.384-0.461v-12.961
	C184.542,278.585,181.264,273.991,176.384,272.292z M166.272,264.133c3.181-1.485,6.088-1.498,8.886-0.038
	c0.245,0.135,0.396,0.394,0.394,0.673v3.048h-9.708v-2.993C165.842,264.529,166.008,264.261,166.272,264.133z M183.003,295.592
	l-3.34,1.113l3.34,2.227v1.748l-3.34,1.113l3.34,2.227v1.748l-3.34,1.113l3.34,2.227V336.5c-0.004,3.711-3.012,6.718-6.723,6.723
	h-12.234c-3.721-0.004-6.737-3.02-6.741-6.742v-27.374l3.34-2.227l-3.34-1.113v-1.748l3.34-2.227l-3.34-1.113v-1.748l3.34-2.227
	l-3.34-1.113V284.39c-0.021-5.215,3.579-9.747,8.664-10.909l0.603-0.139v-2.878h8.254v2.983l0.562,0.163
	c4.502,1.326,7.599,5.451,7.615,10.144V295.592z"/>
<path fill="#FFFFFF" d="M542.438,293.619l-3.922-0.783l0.924-1.847l-1.799-0.36l0.313-1.87l-1.965-0.328v-1.774l-1.594-0.456
	l1.514-1.89h-2.625l0.549-1.369l-1.941-0.323l0.66-2.308h-2.1v-2.154h-0.779c-2.453,0-3.822,2.915-4.271,4.082
	c-13.543,2.362-52.869,29.601-57.357,32.733c-1.865-0.604-4.631,0.813-5.209,1.127l-0.914,0.5l1.318,1.317l-0.393,1.179l2.42,0.907
	l-0.529,1.325l1.523,1.271l-1.369,1.026l2.061,1.235l-0.363,1.808l2.301,0.329v1.809l1.336,0.269l-0.666,2.335h1.484v1.846h1.447
	l0.656,1.967l0.674-0.136c1.566-0.313,2.908-2.479,3.434-3.442c13.043-2.328,53.314-30.661,57.234-33.436
	c4.576,0.548,6.258-0.674,6.438-0.818l0.744-0.596l-1.775-1.481L542.438,293.619z M534.389,296.627l-0.303-0.041l-0.25,0.177
	c-0.443,0.316-44.609,31.605-57.201,33.404l-0.402,0.058l-0.184,0.365c-0.482,0.984-1.135,1.875-1.926,2.635l-0.508-1.526h-1.014
	v-1.847h-0.977l0.564-1.973l-1.742-0.349v-1.884l-2.006-0.287l0.254-1.27l-1.018-0.609l1.092-0.819l-2.166-1.806l0.699-1.752
	l-2.502-0.939l0.223-0.668l-0.484-0.484c1.17-0.486,2.584-0.848,3.193-0.484l0.434,0.262l0.414-0.291
	c0.441-0.311,44.307-30.991,57.506-32.79l0.492-0.067l0.146-0.476c0.227-0.736,1.031-2.596,2.168-3.232v1.936h1.594l-0.57,2
	l1.752,0.292l-0.684,1.708h1.684l-0.949,1.188l2.713,0.775v1.918l1.73,0.288l-0.305,1.822l1.279,0.255l-0.924,1.847l2.232,0.447
	l-1.15,0.766l1.654,1.378C537.446,296.859,535.901,296.884,534.389,296.627z"/>
<circle fill="#6C63FF" cx="339.166" cy="421.096" r="22.583"/>
<polygon fill="#FFFFFF" points="353.385,418.866 341.397,418.866 341.397,406.878 336.936,406.878 336.936,418.866 324.947,418.866 
	324.947,423.327 336.936,423.327 336.936,435.315 341.397,435.315 341.397,423.327 353.385,423.327 "/>
<polygon fill="#FFFFFF" points="410.393,421.875 398.711,416.424 398.711,419.539 371.456,419.539 371.456,424.211 398.711,424.211 
	398.711,427.326 "/>
<polygon fill="#FFFFFF" points="267.94,421.875 279.621,416.424 279.621,419.539 306.877,419.539 306.877,424.211 279.621,424.211 
	279.621,427.326 "/>
<rect x="264.408" y="124.399" fill="#FFFFFF" width="149.516" height="1.558"/>
<rect x="264.77" y="549.587" fill="#FFFFFF" width="149.518" height="1.558"/>
</svg>
