<?xml version="1.0" encoding="utf-8"?>
<!-- Generator: Adobe Illustrator 16.0.0, SVG Export Plug-In . SVG Version: 6.00 Build 0)  -->
<!DOCTYPE svg PUBLIC "-//W3C//DTD SVG 1.1//EN" "http://www.w3.org/Graphics/SVG/1.1/DTD/svg11.dtd">
<svg version="1.1" id="Layer_1" xmlns="http://www.w3.org/2000/svg" xmlns:xlink="http://www.w3.org/1999/xlink" x="0px" y="0px"
	 width="281.081px" height="251.351px" viewBox="0 0 281.081 251.351" enable-background="new 0 0 281.081 251.351"
	 xml:space="preserve">
<g>
	<linearGradient id="SVGID_1_" gradientUnits="userSpaceOnUse" x1="258.3984" y1="223.5718" x2="92.0978" y2="57.2711">
		<stop  offset="0" style="stop-color:#15ADB7"/>
		<stop  offset="0.7463" style="stop-color:#4EC1BB"/>
	</linearGradient>
	<path fill="url(#SVGID_1_)" d="M234.777,68.03c-10.618-19.794-28.44-32.205-46.51-32.39c-0.144-0.002-0.287-0.002-0.433-0.002
		c-12.64,0-30.522,5.684-47.076,31.183c-16.555-25.5-34.437-31.183-47.077-31.183c-0.145,0-0.289,0-0.432,0.002
		c-18.069,0.185-35.892,12.596-46.511,32.39c-10.614,19.785-15.465,50.928,2.756,78.999c16.687,25.709,45.858,48.51,89.181,69.709
		l2.082,1.02l2.081-1.02c43.323-21.199,72.495-44,89.182-69.709C250.242,118.958,245.392,87.815,234.777,68.03z M180.649,135.585
		c0,2.393-1.939,4.332-4.333,4.332h-22.561v22.562c0,2.393-1.94,4.333-4.333,4.333h-17.329c-2.393,0-4.333-1.94-4.333-4.333v-22.562
		H105.2c-2.393,0-4.333-1.939-4.333-4.332v-17.33c0-2.393,1.94-4.332,4.333-4.332h22.561V91.362c0-2.393,1.94-4.333,4.333-4.333
		h17.329c2.393,0,4.333,1.94,4.333,4.333v18.941l0.042,3.62h22.519c2.394,0,4.333,1.939,4.333,4.332V135.585z"/>
	<linearGradient id="SVGID_2_" gradientUnits="userSpaceOnUse" x1="51.7026" y1="70.2656" x2="143.8985" y2="162.4615">
		<stop  offset="0" style="stop-color:#14B0B6"/>
		<stop  offset="0.7027" style="stop-color:#76C9CF"/>
		<stop  offset="0.8166" style="stop-color:#86CDD3"/>
	</linearGradient>
	<path fill="url(#SVGID_2_)" d="M137.391,214.669c-12.774-8.104-23.183-19.393-32.941-30.953
		c-10.702-12.677-20.886-25.951-28.334-40.776c-1.142-2.273-2.229-4.601-3.244-6.972c-5.736-13.395-9.208-28.203-7.622-42.671
		c2.447-22.33,16.683-43.428,34.574-56.557c0.247-0.181,0.501-0.352,0.75-0.531c-2.427-0.4-4.737-0.571-6.891-0.571
		c-0.145,0-0.289,0-0.432,0.002c-18.069,0.185-35.892,12.596-46.511,32.39c-10.614,19.785-15.465,50.928,2.756,78.999
		c16.687,25.709,45.858,48.51,89.181,69.709l2.082,1.02l1.032-0.506C140.294,216.441,138.824,215.58,137.391,214.669z"/>
	<path opacity="0.1" fill="#FFFFFF" d="M137.391,214.669c-12.774-8.104-23.183-19.393-32.941-30.953
		c-10.702-12.677-20.886-25.951-28.334-40.776c-1.142-2.273-2.229-4.601-3.244-6.972c-5.736-13.395-9.208-28.203-7.622-42.671
		c2.447-22.33,16.683-43.428,34.574-56.557c0.247-0.181,0.501-0.352,0.75-0.531c-2.427-0.4-4.737-0.571-6.891-0.571
		c-0.145,0-0.289,0-0.432,0.002c-18.069,0.185-35.892,12.596-46.511,32.39c-10.614,19.785-15.465,50.928,2.756,78.999
		c16.687,25.709,45.858,48.51,89.181,69.709l2.082,1.02l1.032-0.506C140.294,216.441,138.824,215.58,137.391,214.669z"/>
</g>
</svg>
