<?xml version="1.0" encoding="utf-8"?>
<!-- Generator: Adobe Illustrator 16.0.0, SVG Export Plug-In . SVG Version: 6.00 Build 0)  -->
<!DOCTYPE svg PUBLIC "-//W3C//DTD SVG 1.1//EN" "http://www.w3.org/Graphics/SVG/1.1/DTD/svg11.dtd">
<svg version="1.1" id="b098510b-f452-4b85-993b-a1bbfe267c61"
	 xmlns="http://www.w3.org/2000/svg" xmlns:xlink="http://www.w3.org/1999/xlink" x="0px" y="0px" width="1105.04px"
	 height="782.74px" viewBox="0 0 1105.04 782.74" enable-background="new 0 0 1105.04 782.74" xml:space="preserve">
<title>medicine</title>
<ellipse opacity="0.1" fill="#6C63FF" enable-background="new    " cx="330.454" cy="751.441" rx="118.771" ry="21.15"/>
<ellipse opacity="0.1" fill="#6C63FF" enable-background="new    " cx="897.049" cy="767.09" rx="121.59" ry="15.65"/>
<path opacity="0.1" fill="#6C63FF" enable-background="new    " d="M13.84,338.2h101.49v138.33H21.27
	c-0.25,1.42-0.49,2.85-0.75,4.279h94.81V592.37c-0.17-0.05-0.32-0.11-0.48-0.17c-2.68-1.061-5.34-2.181-8-3.38l-1.7-0.771
	c-2.667-1.26-5.333-2.593-8-4c-0.93-0.49-1.86-1-2.78-1.52c-14.804-8.293-28.253-18.801-39.88-31.16c-0.34-0.33-0.66-0.68-1-1
	c-1.62-1.76-3.21-3.54-4.75-5.36l-1.7-2c-1.82-2.229-3.58-4.52-5.29-6.84c-0.25-0.34-0.49-0.68-0.75-1
	c-6.955-9.643-12.729-20.084-17.2-31.1c-0.14-0.33-0.26-0.69-0.39-1c-1.374-3.533-2.59-7.101-3.65-10.7c-0.46-1.51-0.9-3-1.28-4.57
	c-0.14-0.46-0.26-0.91-0.37-1.359c-5.68-22.171-6.35-45.2-6.35-68.07c0-2.67,0-5.351,0-8c0-9.25,0.11-18.56,0.27-27.86
	c0-2.41,0.1-4.81,0.15-7.23c0.14-6.14,0.34-12.28,0.6-18.42c0.06-1.71,0.14-3.41,0.23-5.11c0-0.98,0.05-1.96,0.15-2.94
	C13.4,345.25,13.6,341.72,13.84,338.2z"/>
<path opacity="0.1" fill="#6C63FF" enable-background="new    " d="M115.33,184.18H59.66c9.049-14.165,18.937-27.775,29.61-40.76
	c8.27-10.16,17-20.06,26.06-29.6V184.18z"/>
<path opacity="0.1" fill="#6C63FF" enable-background="new    " d="M115.33,188.46v145.46H14.16c0-0.42,0.07-0.85,0.1-1.27
	c0.09-1.15,0.18-2.3,0.28-3.44c0.11-1.34,0.23-2.69,0.36-4s0.27-2.91,0.42-4.36c0.15-1.45,0.29-2.92,0.46-4.37
	c0.17-1.45,0.32-2.9,0.5-4.34c0.18-1.44,0.34-2.9,0.53-4.34c0.15-1.2,0.31-2.39,0.47-3.59c0.23-1.69,0.47-3.39,0.73-5.07
	c0-0.25,0.07-0.51,0.11-0.75c1.825-12.298,4.312-24.49,7.45-36.52c3.285-12.62,7.479-24.986,12.55-37
	c5.39-12.568,11.7-24.722,18.88-36.36L115.33,188.46z"/>
<path opacity="0.1" fill="#6C63FF" enable-background="new    " d="M139.56,338.19v138.34h216.77V338.19H139.56z M139.56,480.8
	v118.8c1.24,0.261,2.47,0.511,3.69,0.721c1.66,0.319,3.31,0.609,5,0.859c0.32,0.05,0.65,0.101,1,0.13c0.66,0.11,1.34,0.2,2,0.29
	c1.67,0.23,3.33,0.42,5,0.57c0.79,0.08,1.59,0.15,2.39,0.21l1.93,0.15l0,0c1.05,0.08,2.09,0.14,3.12,0.17
	c0.64,0,1.28,0.06,1.94,0.08c0.5,0,1,0,1.52,0s1.26,0,1.89,0c0.86,0,1.72,0,2.57,0h1.15c0.86,0,1.72,0,2.57-0.08h0.06
	c0.59,0,1.19,0,1.79-0.08c0.167,0.01,0.333,0.01,0.5,0c0.5,0,1,0,1.48-0.07h0.35l3.35-0.26c1.1-0.101,2.21-0.23,3.33-0.351
	l2.28-0.27c9.275-1.3,18.448-3.251,27.45-5.84c20.22-5.641,40-13.53,60.21-19.311c26.13-7.449,55-11.109,80.25-2V480.8H139.56z
	 M356.33,184.18V0.01c-23.732-0.257-47.401,2.519-70.43,8.26c-54.89,13.79-104.14,43.7-146.34,81.9v94h10.88v4.27h-10.88v145.48
	h216.77V188.45H195.11v-4.27H356.33z M634.76,121.97c-13.58-0.479-27.08-4.78-39.291-11.42c-23.35-12.7-42-32.31-62.839-48.86
	c-43.3-34.47-97-55.27-152.09-60.43v182.92h309.451l0.77-0.81L634.76,121.97z M662.95,116.97l29.891,32.8v-41.4
	c-10.01,1.24-18.781,4.19-29.85,8.56L662.95,116.97z M692.84,629.1V480.8h-63.689c-0.17-0.63-0.342-1.27-0.541-1.91
	c0.189,0.641,0.35,1.28,0.529,1.91H380.58v107.25c2.36,1.75,4.689,3.59,7,5.46l0,0c2.49,2,4.95,4.11,7.42,6.181l2.49,2.06
	c1.189,1,2.39,2,3.6,2.94c2.4,1.946,4.823,3.866,7.271,5.76c1.21,1,2.449,1.899,3.68,2.84c19.527,14.93,40.126,28.402,61.63,40.31
	c4.82,2.667,9.684,5.271,14.59,7.811c3.271,1.67,6.561,3.33,9.86,4.939c4.96,2.42,9.96,4.754,15,7l0,0
	c46.466,20.858,95.601,35.172,146,42.53c11.193,1.653,22.43,2.953,33.711,3.9v-90.69h1L692.84,629.1z M380.58,188.45v145.47h312.299
	V188.45H380.58z M380.58,338.19v138.34h312.299V338.19H380.58z M717.12,108.19v46.18l38.15-41.86
	c-12.641-2.04-25.357-3.497-38.15-4.37V108.19z M717.12,338.24v138.29h303.75V338.19L717.12,338.24z M1019.76,640.08l1.07-159.28
	H717.12v240.57c19.564,0.821,39.16,0.588,58.701-0.7l0,0h0.34c9.332-0.587,18.623-1.439,27.869-2.56h0.211
	c49.33-5.741,97.566-18.612,143.199-38.21 M1079.44,360.97c-1.141-2.69-2.33-5.36-3.539-8c-2.262-5-4.65-9.86-7.111-14.72h-23.699
	v138.28h59.92c-0.029-39.16-9.939-79.16-25.541-115.61L1079.44,360.97z M1045.09,480.85v137c16.879-16.18,31.141-34.689,41.41-55.85
	c12.35-25.48,18-53.07,18.459-81.17L1045.09,480.85z M1045.09,297.93v36h21.48c-6.498-12.393-13.658-24.427-21.451-36.05
	L1045.09,297.93z M839.09,135.33c-1.58-0.6-3.16-1.21-4.75-1.8c-16.77-6.192-33.906-11.342-51.311-15.42l-58.379,64.07l0,0
	l-1.121,1.19l0.75,0.82h207.779c-28.938-19.919-60.135-36.337-92.939-48.91L839.09,135.33z M938.151,188.5H721.379l-4.26,3.9v141.52
	h37.34h0.061l0,0h266.391v-68.55c-24.098-29.145-51.912-55.004-82.73-76.92L938.151,188.5z"/>
<path opacity="0.1" fill="#6C63FF" enable-background="new    " d="M115.33,261.83v72.09H14.16c0-0.42,0.07-0.85,0.1-1.27
	c0.09-1.15,0.18-2.3,0.28-3.44c0.11-1.34,0.23-2.69,0.36-4s0.27-2.91,0.42-4.36c0.15-1.45,0.29-2.92,0.46-4.37
	c0.17-1.45,0.32-2.9,0.5-4.34c0.18-1.44,0.34-2.9,0.53-4.34c0.15-1.2,0.31-2.39,0.47-3.59c0.23-1.69,0.47-3.39,0.73-5.07
	c0-0.25,0.07-0.51,0.11-0.75c1.825-12.298,4.312-24.49,7.45-36.52L115.33,261.83z"/>
<path opacity="0.1" fill="#6C63FF" enable-background="new    " d="M13.84,338.2h101.49v138.33H21.27
	c-0.25,1.42-0.49,2.85-0.75,4.279h94.81V592.37c-0.17-0.05-0.32-0.11-0.48-0.17c-2.68-1.061-5.34-2.181-8-3.38l-1.7-0.771
	c-2.667-1.26-5.333-2.593-8-4c-0.93-0.49-1.86-1-2.78-1.52c-14.804-8.293-28.253-18.801-39.88-31.16c-0.34-0.33-0.66-0.68-1-1
	c-1.62-1.76-3.21-3.54-4.75-5.36l-1.7-2c-1.82-2.229-3.58-4.52-5.29-6.84c-0.25-0.34-0.49-0.68-0.75-1
	c-6.955-9.643-12.729-20.084-17.2-31.1c-0.14-0.33-0.26-0.69-0.39-1c-1.374-3.533-2.59-7.101-3.65-10.7c-0.46-1.51-0.9-3-1.28-4.57
	c-0.14-0.46-0.26-0.91-0.37-1.359c-5.68-22.171-6.35-45.2-6.35-68.07c0-2.67,0-5.351,0-8c0-9.25,0.11-18.56,0.27-27.86
	c0-2.41,0.1-4.81,0.15-7.23c0.14-6.14,0.34-12.28,0.6-18.42c0.06-1.71,0.14-3.41,0.23-5.11c0-0.98,0.05-1.96,0.15-2.94
	C13.4,345.25,13.6,341.72,13.84,338.2z"/>
<polygon opacity="0.1" fill="#6C63FF" enable-background="new    " points="215.87,209.28 215.87,333.92 139.56,333.92 
	139.56,209.28 150.44,209.28 150.44,167.08 195.1,167.08 195.1,209.28 "/>
<rect x="139.57" y="338.19" opacity="0.1" fill="#6C63FF" enable-background="new    " width="76.3" height="138.33"/>
<path opacity="0.1" fill="#6C63FF" enable-background="new    " d="M139.56,480.81h76.31v115c-9.001,2.587-18.174,4.535-27.45,5.83
	l-2.28,0.28c-1.12,0.13-2.23,0.24-3.33,0.35c-1.1,0.11-2.24,0.19-3.35,0.261h-0.35c-0.48,0-1,0.06-1.47,0.069h-0.51
	c-0.6,0-1.2,0.061-1.8,0.08l0,0c-0.85,0.051-1.7,0.061-2.57,0.07c-0.37,0-0.72,0-1.09,0c-0.86,0-1.71,0-2.57,0h-1.89
	c-0.51,0-1,0-1.53,0l-1.93-0.07c-1,0-2.08-0.109-3.12-0.18l0,0l-1.92-0.14l-2.39-0.221c-1.68-0.149-3.35-0.34-5-0.569l-2-0.28
	l-1-0.14c-1.67-0.261-3.32-0.54-5-0.86c-1.23-0.21-2.45-0.47-3.69-0.72L139.56,480.81z"/>
<rect x="629.959" y="194.56" opacity="0.1" fill="#6C63FF" enable-background="new    " width="62.92" height="139.35"/>
<polygon opacity="0.1" fill="#6C63FF" enable-background="new    " points="692.889,338.19 692.889,476.53 380.58,476.53 
	380.58,416.86 546.93,416.86 546.93,452.06 629.959,452.06 629.959,338.19 "/>
<path opacity="0.1" fill="#6C63FF" enable-background="new    " d="M693.879,629.13h-1v90.75c-11.266-0.953-22.5-2.25-33.699-3.89
	c-50.424-7.383-99.58-21.726-146.06-42.62c-13.42-6.04-26.566-12.634-39.44-19.78c-21.503-11.913-42.105-25.386-61.64-40.31
	c-4.906-3.761-9.75-7.607-14.53-11.54c-3.31-2.73-6.6-5.53-9.93-8.25c-2.311-1.87-4.64-3.71-7-5.471V480.81h248.549
	c-0.17-0.64-0.34-1.279-0.52-1.909c0.189,0.63,0.371,1.27,0.541,1.909h63.729V629.07C693.219,629.08,693.549,629.11,693.879,629.13z
	"/>
<path opacity="0.1" fill="#6C63FF" enable-background="new    " d="M856.981,184.18h-41v-12.74h18.379v-37.95
	c1.594,0.58,3.18,1.176,4.76,1.79v36.16h17.861V184.18z"/>
<path opacity="0.1" fill="#6C63FF" enable-background="new    " d="M955.76,333.92H754.481c0,0,0,0,0.068,0.05l-0.09-0.05h-37.34
	V194.57h10.58v103h48.35v-61h39.941v-48.11h41v48.15h39.939v61h58.83V333.92z"/>
<path opacity="0.1" fill="#6C63FF" enable-background="new    " d="M717.12,338.19v138.34H955.76V338.19H717.12z M1020.54,639.37
	l0.33-109.5H955.76v-49H717.12v240.5c19.564,0.821,39.16,0.588,58.701-0.7l0,0h0.34c9.332-0.587,18.623-1.439,27.869-2.56h0.211
	c49.33-5.741,97.566-18.612,143.199-38.21"/>
<path opacity="0.1" fill="#6C63FF" enable-background="new    " d="M1049.331,480.81H1105c-0.49,28.091-6.131,55.681-18.471,81.16
	c-10.27,21.17-24.539,39.681-41.4,55.851v-88h4.201V480.81z"/>
<path opacity="0.1" fill="#6C63FF" enable-background="new    " d="M1105.03,476.53h-55.699V360.92h30.139
	C1095.071,397.37,1104.981,437.37,1105.03,476.53z"/>
<rect x="659.18" y="233.3" opacity="0.1" fill="#6C63FF" enable-background="new    " width="33.709" height="43.69"/>
<rect x="659.18" y="323.86" opacity="0.1" fill="#6C63FF" enable-background="new    " width="33.709" height="10.06"/>
<rect x="659.18" y="338.19" opacity="0.1" fill="#6C63FF" enable-background="new    " width="33.709" height="29.35"/>
<rect x="659.18" y="414.42" opacity="0.1" fill="#6C63FF" enable-background="new    " width="33.709" height="43.69"/>
<rect x="659.18" y="504.98" opacity="0.1" fill="#6C63FF" enable-background="new    " width="33.709" height="43.689"/>
<path opacity="0.1" fill="#6C63FF" enable-background="new    " d="M692.879,629.07c0.34,0,0.67,0,1,0.06h-1v10.15H659.18v-43.74
	h33.699V629.07z"/>
<path opacity="0.1" fill="#6C63FF" enable-background="new    " d="M692.879,686.08v33.75c-11.266-0.953-22.5-2.25-33.699-3.89
	v-29.86H692.879z"/>
<rect x="380.58" y="473.32" opacity="0.1" fill="#6C63FF" enable-background="new    " width="144.47" height="3.21"/>
<rect x="380.58" y="480.8" opacity="0.1" fill="#6C63FF" enable-background="new    " width="144.47" height="12.3"/>
<rect x="380.58" y="533.42" opacity="0.1" fill="#6C63FF" enable-background="new    " width="144.47" height="19.78"/>
<path opacity="0.1" fill="#6C63FF" enable-background="new    " d="M525.04,593.52v19.78h-113c-4.906-3.746-9.753-7.593-14.54-11.54
	c-3.31-2.729-6.59-5.529-9.93-8.239L525.04,593.52z"/>
<path opacity="0.1" fill="#6C63FF" enable-background="new    " d="M525.04,653.61v19.76h-11.93
	c-13.407-6.047-26.551-12.644-39.431-19.79L525.04,653.61z"/>
<rect x="775.831" y="351.6" opacity="0.1" fill="#6C63FF" enable-background="new    " width="28.439" height="28.44"/>
<rect x="160.05" y="219.09" opacity="0.1" fill="#6C63FF" enable-background="new    " width="28.44" height="28.44"/>
<rect x="160.05" y="285.15" opacity="0.1" fill="#6C63FF" enable-background="new    " width="28.44" height="28.44"/>
<rect x="160.05" y="351.21" opacity="0.1" fill="#6C63FF" enable-background="new    " width="28.44" height="28.44"/>
<rect x="160.05" y="417.26" opacity="0.1" fill="#6C63FF" enable-background="new    " width="28.44" height="28.44"/>
<rect x="160.05" y="483.32" opacity="0.1" fill="#6C63FF" enable-background="new    " width="28.44" height="28.439"/>
<rect x="160.05" y="549.38" opacity="0.1" fill="#6C63FF" enable-background="new    " width="28.44" height="28.44"/>
<rect x="884.401" y="351.6" opacity="0.1" fill="#6C63FF" enable-background="new    " width="28.439" height="28.44"/>
<rect x="775.831" y="421.75" opacity="0.1" fill="#6C63FF" enable-background="new    " width="28.439" height="28.44"/>
<rect x="884.401" y="421.75" opacity="0.1" fill="#6C63FF" enable-background="new    " width="28.439" height="28.44"/>
<rect x="775.831" y="491.89" opacity="0.1" fill="#6C63FF" enable-background="new    " width="28.439" height="28.44"/>
<rect x="884.401" y="491.89" opacity="0.1" fill="#6C63FF" enable-background="new    " width="28.439" height="28.44"/>
<rect x="775.831" y="562.04" opacity="0.1" fill="#6C63FF" enable-background="new    " width="28.439" height="28.44"/>
<rect x="884.401" y="562.04" opacity="0.1" fill="#6C63FF" enable-background="new    " width="28.439" height="28.44"/>
<rect x="775.831" y="632.19" opacity="0.1" fill="#6C63FF" enable-background="new    " width="28.439" height="28.439"/>
<rect x="884.401" y="632.19" opacity="0.1" fill="#6C63FF" enable-background="new    " width="28.439" height="28.439"/>
<polygon opacity="0.1" fill="#6C63FF" enable-background="new    " points="775.831,720.67 775.831,702.33 804.26,702.33 
	804.26,718.06 "/>
<path opacity="0.1" fill="#6C63FF" enable-background="new    " d="M18,298.37v16.27h97.33v-16.27H18z M27.7,313.62h-7.94v-14.25h8
	L27.7,313.62z M37.39,313.62h-8v-14.25h8V313.62z M47.06,313.62h-8v-14.25h8V313.62z M56.75,313.62h-7.99v-14.25h8L56.75,313.62z
	 M66.43,313.62h-8v-14.25h8V313.62z M76.12,313.62h-8v-14.25h8V313.62z M85.81,313.62h-8v-14.25h8V313.62z M95.49,313.62h-8v-14.25
	h8V313.62z M105.17,313.62h-8v-14.25h8V313.62z M114.85,313.62h-8v-14.25h8V313.62z"/>
<path opacity="0.1" fill="#6C63FF" enable-background="new    " d="M18,345.71v16.27h97.33v-16.27H18z M27.7,360.95h-7.94v-14.21h8
	L27.7,360.95z M37.39,360.95h-8v-14.21h8V360.95z M47.06,360.95h-8v-14.21h8V360.95z M56.75,360.95h-7.99v-14.21h8L56.75,360.95z
	 M66.43,360.95h-8v-14.21h8V360.95z M76.12,360.95h-8v-14.21h8V360.95z M85.81,360.95h-8v-14.21h8V360.95z M95.49,360.95h-8v-14.21
	h8V360.95z M105.17,360.95h-8v-14.21h8V360.95z M114.85,360.95h-8v-14.21h8V360.95z"/>
<path opacity="0.1" fill="#6C63FF" enable-background="new    " d="M18,393.069v16.301h97.33v-16.301H18z M27.7,408.31h-7.94v-14.22
	h8L27.7,408.31z M37.39,408.31h-8v-14.22h8V408.31z M47.06,408.31h-8v-14.22h8V408.31z M56.75,408.31h-7.99v-14.22h8L56.75,408.31z
	 M66.43,408.31h-8v-14.22h8V408.31z M76.12,408.31h-8v-14.22h8V408.31z M85.81,408.31h-8v-14.22h8V408.31z M95.49,408.31h-8v-14.22
	h8V408.31z M105.17,408.31h-8v-14.22h8V408.31z M114.85,408.31h-8v-14.22h8V408.31z"/>
<path opacity="0.1" fill="#6C63FF" enable-background="new    " d="M18,440.43v16.25h97.33v-16.25H18z M27.7,455.67h-7.94V441.44h8
	L27.7,455.67z M37.39,455.67h-8V441.44h8V455.67z M47.06,455.67h-8V441.44h8V455.67z M56.75,455.67h-7.99V441.44h8L56.75,455.67z
	 M66.43,455.67h-8V441.44h8V455.67z M76.12,455.67h-8V441.44h8V455.67z M85.81,455.67h-8V441.44h8V455.67z M95.49,455.67h-8V441.44
	h8V455.67z M105.17,455.67h-8V441.44h8V455.67z M114.85,455.67h-8V441.44h8V455.67z"/>
<path opacity="0.1" fill="#6C63FF" enable-background="new    " d="M18.42,487.78c0.39,1.529,0.83,3.06,1.29,4.569v-3.55h8v14.22
	h-4.28c0.13,0.33,0.26,0.69,0.39,1h91.51V487.78H18.42z M37.42,503.02h-8V488.8h8V503.02z M47.09,503.02h-8V488.8h8V503.02z
	 M56.78,503.02h-8.02V488.8h8L56.78,503.02z M66.46,503.02h-8V488.8h8V503.02z M76.15,503.02h-8V488.8h8V503.02z M85.84,503.02h-8
	V488.8h8V503.02z M95.52,503.02h-8V488.8h8V503.02z M105.2,503.02h-8V488.8h8V503.02z M114.88,503.02h-8V488.8h8V503.02z"/>
<path opacity="0.1" fill="#6C63FF" enable-background="new    " d="M41.02,535.14c0.25,0.32,0.49,0.681,0.75,1h5.29v6.83
	c0.57,0.681,1.13,1.36,1.71,2v-8.87h8v14.271h-3.24c0.32,0.33,0.63,0.68,1,1h60.83v-16.23H41.02z M66.43,550.37h-8v-14.21h8V550.37z
	 M76.12,550.37h-8v-14.21h8V550.37z M85.81,550.37h-8v-14.21h8V550.37z M95.49,550.37h-8v-14.21h8V550.37z M105.17,550.37h-8v-14.21
	h8V550.37z M114.85,550.37h-8v-14.21h8V550.37z"/>
<path opacity="0.1" fill="#6C63FF" enable-background="new    " d="M94.41,582.49c0.91,0.52,1.84,1,2.78,1.52v-0.5h8v4.5l1.7,0.79
	v-5.29h8v8.65c0.153,0.076,0.314,0.137,0.48,0.18v-9.85H94.41z"/>
<path opacity="0.1" fill="#6C63FF" enable-background="new    " d="M754.481,333.92L754.481,333.92h0.059H754.481z M692.879,629.06
	L692.879,629.06h1H692.879z M628.61,478.89c0.189,0.641,0.35,1.28,0.529,1.91l0,0C628.981,480.17,628.809,479.53,628.61,478.89z
	 M754.481,333.89L754.481,333.89h0.059H754.481z M150.48,184.15v4.27h44.67v-4.27H150.48z M692.879,629.06L692.879,629.06h1H692.879
	z M628.61,478.89c0.189,0.641,0.35,1.28,0.529,1.91l0,0C628.981,480.17,628.809,479.53,628.61,478.89z M754.481,333.89
	L754.481,333.89h0.059H754.481z M692.879,629.03L692.879,629.03h1H692.879z M628.61,478.89c0.189,0.641,0.35,1.28,0.529,1.91l0,0
	C628.981,480.17,628.809,479.53,628.61,478.89z"/>
<g>
	<rect x="905.446" y="468.03" fill="#535461" width="6.27" height="141.17"/>
	<path fill="#3F3D56" d="M951.116,608.771l-0.391,6.36l-0.56,9l-0.229,3.74l-0.551,9l-0.24,3.739l-0.559,9l-6.32,102.07
		c-0.57,9.115-8.127,16.217-17.26,16.22h-32.861c-9.131-0.004-16.684-7.106-17.25-16.22l-6.289-102.14l-0.561-9l-0.229-3.74l-0.56-9
		l-0.23-3.74l-0.561-9l-0.399-6.359c-0.282-4.963,3.513-9.215,8.476-9.496c0.174-0.01,0.35-0.015,0.524-0.015h67.21
		c4.938,0.043,8.904,4.08,8.862,9.017C951.137,608.396,951.129,608.583,951.116,608.771z"/>
	<polygon fill="#9D9CB5" points="950.725,615.131 950.166,624.101 866.986,624.101 866.426,615.131 	"/>
	<polygon fill="#9D9CB5" points="949.936,627.841 949.385,636.82 867.776,636.82 867.215,627.841 	"/>
	<polygon fill="#9D9CB5" points="949.145,640.57 948.596,649.541 868.566,649.541 868.006,640.57 	"/>
	<path fill="#6C63FF" d="M856.856,520.94c36.51,26.42,51.75,67.74,51.75,67.74s-44-1.51-80.52-27.93
		c-36.521-26.42-51.73-67.73-51.73-67.73S820.336,494.521,856.856,520.94z"/>
	<path fill="none" stroke="#535461" stroke-width="2" stroke-miterlimit="10" d="M776.326,493.021c0,0,45.681,25.351,60.33,46.34
		c14.649,20.99,71.95,49.32,71.95,49.32"/>
	<path fill="#6C63FF" d="M880.426,467.721c19.869,14.37,28.18,36.86,28.18,36.86s-23.95-0.82-43.83-15.19
		c-19.881-14.37-28.17-36.87-28.17-36.87S860.545,453.341,880.426,467.721z"/>
	<path fill="none" stroke="#535461" stroke-width="2" stroke-miterlimit="10" d="M836.606,452.521c0,0,24.859,13.8,32.83,25.22
		c7.97,11.42,39.17,26.841,39.17,26.841"/>
	<path fill="#6C63FF" d="M937.456,503.44c-22.83,25.09-27.66,57.88-27.66,57.88s32.19-7.899,55-33
		c22.811-25.1,27.66-57.88,27.66-57.88S960.286,478.351,937.456,503.44z"/>
	<path fill="none" stroke="#535461" stroke-width="2" stroke-miterlimit="10" d="M992.475,470.45c0,0-29.739,25.721-37.299,43.44
		c-7.561,17.72-45.381,47.43-45.381,47.43"/>
</g>
<path fill="#FFB0B1" d="M834.151,392.37L834.151,392.37z"/>
<path fill="#FFB0B1" d="M833.5,393.08l0.299-0.31L833.5,393.08z"/>
<path opacity="0.1" enable-background="new    " d="M950.36,285.37c-7.68,5.25-14.119,9.68-15.379,10.6
	c-3.441,2.55-10,17.52-14.23,25.16c-3.371,6.15-14.32,7.73-18.451,8.12l0.531-4.57c9.389-4.2,16.58-17.58,16.58-17.58l18.559-32.54
	l6.391,5.81C944.36,280.37,946.76,282.37,950.36,285.37z"/>
<path fill="#DCE7FF" d="M950.36,284.77c-7.68,5.25-14.119,9.68-15.379,10.61c-3.441,2.54-10,17.51-14.23,25.15
	c-3.371,6.15-14.32,7.73-18.451,8.12l0.531-4.57c9.389-4.2,16.58-17.58,16.58-17.58l18.559-32.54l6.391,5.79
	C944.36,279.75,946.76,281.73,950.36,284.77z"/>
<path opacity="0.1" enable-background="new    " d="M912.821,299.12c-1.311,2-5.061,12.24-8.191,21.18
	c-2.93-1.14-5.59-8.41-5.59-8.41l15.621-22.22C916.26,291.87,915.209,295.52,912.821,299.12z"/>
<path fill="#DCE7FF" d="M913.42,298.52c-1.311,2-5.061,12.24-8.189,21.18c-2.932-1.13-5.592-8.41-5.592-8.41l15.621-22.21
	C916.86,291.27,915.809,294.93,913.42,298.52z"/>
<path fill="#727A9C" d="M825.18,403.37c0.084-0.107,0.189-0.195,0.311-0.26c0.143-0.091,0.326-0.091,0.469,0
	c0.068,0.082,0.125,0.173,0.17,0.27c0.135,0.224,0.363,0.374,0.621,0.41l-0.15,1L825.18,403.37z"/>
<path fill="#6C63FF" d="M705.86,51.42h-0.75c-29.84,0-56.23,15.79-71.41,39.09c-15.18-23.3-41.57-39.09-71.41-39.09h-0.75
	c-46.608,0.444-84.165,38.34-84.19,84.95c0,27.81,12.181,67.27,35.931,99.74c45.25,61.87,120.419,116,120.419,116
	s75.17-54.12,120.41-116c23.76-32.47,35.93-71.93,35.93-99.74C790.014,89.764,752.463,51.87,705.86,51.42z M695.129,240.87
	c-6.955-0.026-13.18-4.325-15.67-10.82h-17.84c-2.408-0.015-4.541-1.558-5.311-3.84l-5.479-16.51l-17.34,60.59
	c-0.693,2.396-2.887,4.046-5.381,4.05h-0.35c-2.611-0.126-4.779-2.06-5.201-4.64L604.69,162.22l-13.061,63.6
	c-0.615,2.486-2.848,4.232-5.41,4.23H561.09c-3.084,0.131-5.691-2.264-5.822-5.349c-0.129-3.084,2.266-5.69,5.35-5.821
	c0.158-0.006,0.314-0.006,0.473,0h20.73l18.5-85.51c0.723-3.013,3.752-4.868,6.764-4.145c2.217,0.532,3.891,2.352,4.236,4.604
	l18.25,109.64l15.539-54.21c0.664-2.345,2.793-3.973,5.23-4h0.109c2.41,0.001,4.549,1.55,5.301,3.84l9.91,29.81h13.58
	c2.893-8.792,12.367-13.574,21.158-10.68c8.793,2.894,13.574,12.367,10.68,21.16c-2.262,6.875-8.682,11.52-15.918,11.52
	L695.129,240.87z"/>
<g>
	<path fill="#E6E6E6" d="M225.454,752.909h210V498.192c0-13.488-13.285-24.461-29.615-24.461H255.068
		c-16.329,0-29.614,10.973-29.614,24.461V752.909z"/>
	<path fill="#FFFFFF" d="M241.454,742.376h178V526.474c0-11.432-11.262-20.732-25.102-20.732H266.556
		c-13.841,0-25.102,9.301-25.102,20.732V742.376z"/>
	<path fill="#3F3D56" d="M223.868,453.909c-5.191,0-9.414,3.488-9.414,7.775v22.443c0,4.287,4.223,7.775,9.414,7.775h213.172
		c5.191,0,9.414-3.488,9.414-7.775v-22.443c0-4.287-4.223-7.775-9.414-7.775H223.868z"/>
	<path fill="#3F3D56" d="M267.635,714.692c-5.073,0.014-9.182,4.123-9.196,9.195l0,0c0.015,5.074,4.123,9.184,9.196,9.197h17.214
		v-18.393H267.635z"/>
	<path fill="#6C63FF" d="M300.648,714.692h-16.742v18.393h16.742c5.073-0.014,9.182-4.123,9.196-9.197l0,0
		C309.83,718.815,305.722,714.706,300.648,714.692z"/>
	<path opacity="0.2" enable-background="new    " d="M306.649,716.944c1.45,1.662,2.25,3.795,2.253,6l0,0
		c-0.016,5.074-4.124,9.184-9.197,9.197h-15.799v0.943h16.742c5.073-0.014,9.182-4.123,9.196-9.197l0,0
		C309.841,721.22,308.674,718.685,306.649,716.944z"/>
	<path fill="#3F3D56" d="M345.316,576.165c-3.49-3.68-9.299-3.852-13-0.383l0,0c-3.682,3.49-3.854,9.299-0.385,13l11.809,12.525
		l13.383-12.615L345.316,576.165z"/>
	<path fill="#6C63FF" d="M367.96,600.188l-11.484-12.184l-13.385,12.617l11.484,12.184c3.492,3.682,9.299,3.852,13.002,0.383l0,0
		C371.257,609.698,371.429,603.89,367.96,600.188z"/>
	<path opacity="0.2" enable-background="new    " d="M370.439,606.101c-0.217,2.195-1.219,4.24-2.822,5.756l0,0
		c-3.701,3.469-9.51,3.297-13-0.385l-10.838-11.496l-0.688,0.646l11.484,12.184c3.492,3.682,9.299,3.852,13.002,0.383l0,0
		C369.517,611.354,370.56,608.767,370.439,606.101z"/>
	<path fill="#3F3D56" d="M296.315,605.165c-3.49-3.68-9.299-3.852-13-0.383l0,0c-3.682,3.49-3.854,9.299-0.384,13l11.808,12.525
		l13.384-12.615L296.315,605.165z"/>
	<path fill="#6C63FF" d="M318.961,629.188l-11.484-12.184l-13.385,12.617l11.484,12.184c3.491,3.682,9.299,3.852,13.001,0.383l0,0
		C322.258,638.698,322.43,632.89,318.961,629.188z"/>
	<path opacity="0.2" enable-background="new    " d="M321.438,635.101c-0.216,2.195-1.218,4.24-2.822,5.756l0,0
		c-3.701,3.469-9.51,3.297-13-0.385l-10.838-11.496l-0.687,0.646l11.484,12.184c3.491,3.682,9.299,3.852,13.001,0.383l0,0
		C320.517,640.354,321.561,637.767,321.438,635.101z"/>
	<path fill="#3F3D56" d="M345.316,632.165c-3.49-3.68-9.299-3.852-13-0.383l0,0c-3.682,3.49-3.854,9.299-0.385,13l11.809,12.525
		l13.383-12.615L345.316,632.165z"/>
	<path fill="#6C63FF" d="M367.96,656.188l-11.484-12.184l-13.385,12.617l11.484,12.184c3.492,3.682,9.299,3.852,13.002,0.383l0,0
		C371.257,665.698,371.429,659.89,367.96,656.188z"/>
	<path opacity="0.2" enable-background="new    " d="M370.439,662.101c-0.217,2.195-1.219,4.24-2.822,5.756l0,0
		c-3.701,3.469-9.51,3.297-13-0.385l-10.838-11.496l-0.688,0.646l11.484,12.184c3.492,3.682,9.299,3.852,13.002,0.383l0,0
		C369.517,667.354,370.56,664.767,370.439,662.101z"/>
	<path fill="#3F3D56" d="M375.208,689.634c3.639-3.535,3.738-9.346,0.225-13.006l0,0c-3.533-3.639-9.344-3.738-13.004-0.225
		l-12.381,11.959l12.777,13.23L375.208,689.634z"/>
	<path fill="#6C63FF" d="M351.462,712.567l12.043-11.631l-12.779-13.23l-12.043,11.633c-3.639,3.535-3.738,9.344-0.225,13.004l0,0
		C341.994,715.981,347.802,716.081,351.462,712.567z"/>
	<path opacity="0.2" enable-background="new    " d="M345.582,715.118c-2.199-0.189-4.256-1.166-5.789-2.752l0,0
		c-3.514-3.66-3.414-9.471,0.225-13.004l11.365-10.977l-0.656-0.68l-12.043,11.633c-3.639,3.535-3.738,9.344-0.225,13.004l0,0
		C340.316,714.259,342.916,715.272,345.582,715.118z"/>
	<path fill="#3F3D56" d="M309.208,660.634c3.639-3.535,3.739-9.346,0.226-13.006l0,0c-3.534-3.639-9.345-3.738-13.004-0.225
		l-12.382,11.959l12.778,13.23L309.208,660.634z"/>
	<path fill="#6C63FF" d="M285.462,683.567l12.043-11.631l-12.778-13.23l-12.043,11.633c-3.639,3.535-3.739,9.344-0.226,13.004l0,0
		C275.993,686.981,281.803,687.081,285.462,683.567z"/>
	<path opacity="0.2" enable-background="new    " d="M279.581,686.118c-2.198-0.189-4.255-1.166-5.789-2.752l0,0
		c-3.514-3.66-3.413-9.471,0.226-13.004l11.364-10.977l-0.655-0.68l-12.043,11.633c-3.639,3.535-3.739,9.344-0.226,13.004l0,0
		C274.315,685.259,276.916,686.272,279.581,686.118z"/>
	<path fill="#3F3D56" d="M403.208,625.634c3.639-3.535,3.738-9.346,0.225-13.006l0,0c-3.533-3.639-9.344-3.738-13.004-0.225
		l-12.381,11.959l12.777,13.23L403.208,625.634z"/>
	<path fill="#6C63FF" d="M379.462,648.567l12.043-11.631l-12.779-13.23l-12.043,11.633c-3.639,3.535-3.738,9.344-0.225,13.004l0,0
		C369.994,651.981,375.802,652.081,379.462,648.567z"/>
	<path opacity="0.2" enable-background="new    " d="M373.582,651.118c-2.199-0.189-4.256-1.166-5.789-2.752l0,0
		c-3.514-3.66-3.414-9.471,0.225-13.004l11.365-10.977l-0.656-0.68l-12.043,11.633c-3.639,3.535-3.738,9.344-0.225,13.004l0,0
		C368.316,650.259,370.916,651.272,373.582,651.118z"/>
	<path fill="#3F3D56" d="M382.316,698.165c-3.49-3.68-9.299-3.852-13-0.383l0,0c-3.682,3.49-3.854,9.299-0.385,13l11.809,12.525
		l13.383-12.615L382.316,698.165z"/>
	<path fill="#6C63FF" d="M404.96,722.188l-11.484-12.184l-13.385,12.617l11.484,12.184c3.492,3.682,9.299,3.852,13.002,0.383l0,0
		C408.257,731.698,408.429,725.89,404.96,722.188z"/>
	<path opacity="0.2" enable-background="new    " d="M407.439,728.101c-0.217,2.195-1.219,4.24-2.822,5.756l0,0
		c-3.701,3.469-9.51,3.297-13-0.385l-10.838-11.496l-0.688,0.646l11.484,12.184c3.492,3.682,9.299,3.852,13.002,0.383l0,0
		C406.517,733.354,407.56,730.767,407.439,728.101z"/>
	<path fill="#3F3D56" d="M317.315,697.165c-3.49-3.68-9.299-3.852-13-0.383l0,0c-3.682,3.49-3.854,9.299-0.384,13l11.808,12.525
		l13.384-12.615L317.315,697.165z"/>
	<path fill="#6C63FF" d="M339.96,721.188l-11.484-12.184l-13.385,12.617l11.484,12.184c3.491,3.682,9.298,3.852,13.001,0.383l0,0
		C343.257,730.698,343.429,724.89,339.96,721.188z"/>
	<path opacity="0.2" enable-background="new    " d="M342.439,727.101c-0.217,2.195-1.219,4.24-2.822,5.756l0,0
		c-3.701,3.469-9.51,3.297-13-0.385l-10.838-11.496l-0.687,0.646l11.484,12.184c3.491,3.682,9.298,3.852,13.001,0.383l0,0
		C341.517,732.354,342.56,729.767,342.439,727.101z"/>
	<path fill="#6C63FF" d="M335.613,664.173c0,6.303-4.436,11.736-10.612,12.998c-1.75,0.354-3.554,0.354-5.305,0
		c-7.179-1.467-11.809-8.477-10.342-15.654c1.063-5.207,5.134-9.277,10.342-10.342c1.751-0.354,3.555-0.354,5.305,0
		C331.177,652.435,335.613,657.868,335.613,664.173z"/>
	<path opacity="0.2" enable-background="new    " d="M325.001,651.175v25.996c-1.75,0.354-3.554,0.354-5.305,0v-25.996
		C321.447,650.821,323.251,650.821,325.001,651.175z"/>
	<path fill="#6C63FF" d="M341.613,611.173c0,6.303-4.436,11.736-10.611,12.998c-1.75,0.354-3.554,0.354-5.305,0
		c-7.179-1.467-11.809-8.477-10.342-15.654c1.063-5.207,5.134-9.277,10.342-10.342c1.751-0.354,3.555-0.354,5.305,0
		C337.177,599.435,341.613,604.868,341.613,611.173z"/>
	<path opacity="0.2" enable-background="new    " d="M331.001,598.175v25.996c-1.75,0.354-3.554,0.354-5.305,0v-25.996
		C327.447,597.821,329.251,597.821,331.001,598.175z"/>
	<path fill="#6C63FF" d="M341.613,687.173c0,6.303-4.436,11.736-10.611,12.998c-1.75,0.354-3.554,0.354-5.305,0
		c-7.179-1.467-11.809-8.477-10.342-15.654c1.063-5.207,5.134-9.277,10.342-10.342c1.751-0.354,3.555-0.354,5.305,0
		C337.177,675.435,341.613,680.868,341.613,687.173z"/>
	<path opacity="0.2" enable-background="new    " d="M331.001,674.175v25.996c-1.75,0.354-3.554,0.354-5.305,0v-25.996
		C327.447,673.821,329.251,673.821,331.001,674.175z"/>
	<path fill="#6C63FF" d="M374.613,724.173c0,6.303-4.436,11.736-10.611,12.998c-1.75,0.354-3.555,0.354-5.305,0
		c-7.18-1.467-11.809-8.477-10.342-15.654c1.063-5.207,5.133-9.277,10.342-10.342c1.75-0.354,3.555-0.354,5.305,0
		C370.177,712.435,374.613,717.868,374.613,724.173z"/>
	<path opacity="0.2" enable-background="new    " d="M364.001,711.175v25.996c-1.75,0.354-3.555,0.354-5.305,0v-25.996
		C360.447,710.821,362.251,710.821,364.001,711.175z"/>
	<path fill="#6C63FF" d="M403.763,656.097c4.539,4.373,5.373,11.338,1.996,16.66c-0.961,1.506-2.213,2.805-3.682,3.82
		c-6.039,4.15-14.299,2.619-18.449-3.418c-3.01-4.381-3.117-10.135-0.268-14.623c0.959-1.506,2.211-2.805,3.682-3.82
		C392.236,651.144,399.226,651.722,403.763,656.097z"/>
	<path opacity="0.2" enable-background="new    " d="M387.042,654.716l18.717,18.041c-0.961,1.506-2.213,2.805-3.682,3.82
		l-18.717-18.041C384.32,657.03,385.572,655.731,387.042,654.716z"/>
	<path fill="#6C63FF" d="M407.763,685.097c4.539,4.373,5.373,11.338,1.996,16.66c-0.961,1.506-2.213,2.805-3.682,3.82
		c-6.039,4.15-14.299,2.619-18.449-3.418c-3.01-4.381-3.117-10.135-0.268-14.623c0.959-1.506,2.211-2.805,3.682-3.82
		C396.236,680.144,403.226,680.722,407.763,685.097z"/>
	<path opacity="0.2" enable-background="new    " d="M391.042,683.716l18.717,18.041c-0.961,1.506-2.213,2.805-3.682,3.82
		l-18.717-18.041C388.32,686.03,389.572,684.731,391.042,683.716z"/>
	<path fill="#6C63FF" d="M288.764,692.097c4.539,4.373,5.373,11.338,1.995,16.66c-0.96,1.506-2.212,2.805-3.682,3.82
		c-6.038,4.15-14.298,2.619-18.448-3.418c-3.011-4.381-3.117-10.135-0.269-14.623c0.96-1.506,2.212-2.805,3.682-3.82
		C277.235,687.144,284.226,687.722,288.764,692.097z"/>
	<path opacity="0.2" enable-background="new    " d="M272.042,690.716l18.717,18.041c-0.96,1.506-2.212,2.805-3.682,3.82
		l-18.717-18.041C269.32,693.03,270.572,691.731,272.042,690.716z"/>
	<rect x="240.954" y="453.909" opacity="0.2" enable-background="new    " width="5" height="37"/>
	<rect x="269.954" y="453.909" opacity="0.2" enable-background="new    " width="5" height="37"/>
	<rect x="298.954" y="453.909" opacity="0.2" enable-background="new    " width="5" height="37"/>
	<rect x="327.954" y="453.909" opacity="0.2" enable-background="new    " width="5" height="37"/>
	<rect x="356.955" y="453.909" opacity="0.2" enable-background="new    " width="5" height="37"/>
	<rect x="385.955" y="453.909" opacity="0.2" enable-background="new    " width="5" height="37"/>
	<rect x="414.955" y="453.909" opacity="0.2" enable-background="new    " width="5" height="37"/>
</g>
</svg>
