<?xml version="1.0" encoding="utf-8"?>
<!-- Generator: Adobe Illustrator 16.0.0, SVG Export Plug-In . SVG Version: 6.00 Build 0)  -->
<!DOCTYPE svg PUBLIC "-//W3C//DTD SVG 1.1//EN" "http://www.w3.org/Graphics/SVG/1.1/DTD/svg11.dtd">
<svg version="1.1" id="f8de8b25-3d53-474b-a5b1-b2a4ad6ddbb8"
	 xmlns="http://www.w3.org/2000/svg" xmlns:xlink="http://www.w3.org/1999/xlink" x="0px" y="0px" width="970.153px"
	 height="753.563px" viewBox="0 0 970.153 753.563" enable-background="new 0 0 970.153 753.563" xml:space="preserve">
<title>Mobile app</title>
<path fill="#F2F2F2" d="M625.643,750.37l344.51-430.508L595.894,0l-65.693,82.091c19.211,15.461,29.371,41.421,24.123,68.069
	c-7.425,37.697-42.847,62.466-79.116,55.323c-11.633-2.291-22.41-7.733-31.158-15.733L251.385,430.508L625.643,750.37z"/>
<line fill="none" stroke="#3F3D56" stroke-width="2" stroke-miterlimit="10" x1="0" y1="752.563" x2="888" y2="752.563"/>
<circle fill="none" stroke="#3F3D56" stroke-width="2" stroke-miterlimit="10" cx="350.724" cy="56.916" r="14.755"/>
<circle fill="none" stroke="#3F3D56" stroke-width="2" stroke-miterlimit="10" cx="799.458" cy="93.916" r="14.756"/>
<circle fill="#F2F2F2" cx="490.776" cy="139.729" r="54.315"/>
<path fill="#3F3D56" d="M819.135,109.881c17.115,3.096,28.479,19.48,25.384,36.596l-19.251,106.425l5.281,1.32l-13.196,72.265
	l-5.131-1.466L743.256,706.29c-4.883,26.994-29.032,46.178-56.431,44.828L439.471,738.93c-2.375-0.117-4.736-0.439-7.057-0.963
	c-22.273-5.021-36.258-27.146-31.236-49.42L522.755,149.28c5.26-23.33,25.982-39.901,49.897-39.901h240.616
	C815.236,109.363,817.2,109.531,819.135,109.881z"/>
<path fill="#C7C7FF" d="M604.33,121.005c0.71,9.219,8.397,16.338,17.644,16.338h126.493c4.681,0,8.779-3.141,9.996-7.661l0,0
	c1.378-5.12,6.021-8.677,11.322-8.677h26.646c1.477,0,2.951,0.132,4.404,0.394c13.505,2.433,22.48,15.352,20.048,28.856
	l-99.579,552.837c-2.559,14.203-15.373,24.223-29.773,23.277l-246.555-16.158c-1.088-0.072-2.17-0.225-3.236-0.457
	c-11.818-2.578-19.309-14.25-16.73-26.068l116.698-534.868c3.543-16.237,17.917-27.813,34.536-27.813H604.33L604.33,121.005z"/>
<polygon fill="#2F2E41" points="751.811,422.868 751.016,421.893 731.71,437.69 726.699,431.01 725.694,431.762 731.491,439.493 "/>
<rect x="487.42" y="442.426" transform="matrix(0.9998 0.0212 -0.0212 0.9998 9.5207 -13.0497)" fill="#2F2E41" width="267.125" height="1.256"/>
<rect x="479.244" y="479.815" transform="matrix(0.9997 0.0231 -0.0231 0.9997 11.2591 -14.0818)" fill="#2F2E41" width="272.164" height="1.256"/>
<path opacity="0.1" enable-background="new    " d="M588.652,524.157c-32.946-1.23-60.652,24.479-61.884,57.424
	c-0.031,0.742-0.044,1.484-0.044,2.232c0.012,32.951,26.723,59.662,59.676,59.674c32.97,0.012,59.706-26.705,59.718-59.674
	C646.118,551.711,620.731,525.356,588.652,524.157z"/>
<path opacity="0.1" enable-background="new    " d="M640.462,607.063c-0.003-23.098-13.329-44.123-34.216-53.982
	c-29.818-14.078-65.401-1.316-79.479,28.5c-0.031,0.742-0.044,1.484-0.044,2.232c0.003,23.098,13.328,44.121,34.216,53.982
	c29.817,14.076,65.401,1.316,79.479-28.502C640.45,608.551,640.462,607.811,640.462,607.063L640.462,607.063z"/>
<path fill="#6C63FF" d="M566.446,263.549c-3.314,17.393-1.131,42.162,8.445,62.646c18.229,39.037,54.32,73.44,54.32,73.44
	s48.996-33.297,81.982-71.656c17.312-20.131,28.91-44.72,32.226-62.113c5.542-29.151-11.196-53.129-37.522-53.753l-0.424-0.005
	c-16.889-0.221-33.708,9.458-45.076,23.918c-5.814-14.684-18.868-24.755-35.756-24.976l-0.426-0.006
	C597.786,210.98,572.016,234.402,566.446,263.549z M607.682,329.633c-4.095-0.054-7.175-3.006-7.635-7.322
	c-0.59-5.521,3.244-11.41,8.566-13.155c5.32-1.745,10.112,1.316,10.701,6.836l7.687,0.101l9.163-18.57
	c0.697-1.427,2.094-2.38,3.457-2.363l0.063,0.001c1.376,0.035,2.387,1.07,2.482,2.541l2.333,34.02l23.399-68.436
	c0.463-1.406,1.628-2.532,2.946-2.848c1.79-0.429,3.284,0.753,3.333,2.643l0.277,53.616l11.732,0.153
	c0.091-0.002,0.18-0.001,0.269,0.003c1.729,0.105,2.774,1.753,2.333,3.681c-0.441,1.928-2.203,3.407-3.933,3.301l-14.222-0.186
	c-1.451-0.018-2.506-1.125-2.559-2.685l0.19-39.874l-22.925,67.087c-0.547,1.61-2.004,2.803-3.497,2.864l-0.198-0.003
	c-1.411-0.021-2.455-1.069-2.563-2.573l-2.591-38.022l-5.069,10.285c-0.709,1.422-2.1,2.371-3.464,2.362l-10.097-0.132
	c-2.184,4.044-6.219,6.687-10.158,6.651L607.682,329.633z"/>
<circle fill="none" stroke="#3F3D56" stroke-width="2" stroke-miterlimit="10" cx="169.707" cy="461.266" r="14.755"/>
</svg>
